# xmcd
#
# Track frame offsets:
#	150
#	17729
#	33652
#	51053
#	67787
#	84589
#	100426
#	118641
#	132591
#	149790
#
# Disc length: 2203 seconds
# Revision: 0
# Processed by: cddbd v1.5.2PL0 Copyright (c) Steve Scherf et al.
# Submitted via: dBpowerAMP V12.0
#
DISCID=9008990a
DTITLE=Adam Cappa - The Rescue
DYEAR=2012
DGENRE=Gospel
TTITLE0=The Rescue
TTITLE1=All I Really Want
TTITLE2=Washed Over Me
TTITLE3=The Only One
TTITLE4=Sail Away
TTITLE5=Perfect
TTITLE6=From The Inside
TTITLE7=Only A Glimpse
TTITLE8=What's At Stake
TTITLE9=How Worthy
EXTD=
EXTT0=
EXTT1=
EXTT2=
EXTT3=
EXTT4=
EXTT5=
EXTT6=
EXTT7=
EXTT8=
EXTT9=
PLAYORDER=
